<svg width="24" height="24" viewBox="0 0 24 24" fill="none" xmlns="http://www.w3.org/2000/svg">
<g clip-path="url(#clip0_1_278)">
<path d="M12 17.17C11.343 17.1712 10.6921 17.0428 10.0847 16.7923C9.47728 16.5418 8.92519 16.174 8.46 15.71L0.290002 7.54C0.101699 7.3517 -0.00408936 7.0963 -0.00408936 6.83C-0.00408936 6.5637 0.101699 6.3083 0.290002 6.12C0.478306 5.9317 0.733701 5.82591 1 5.82591C1.2663 5.82591 1.5217 5.9317 1.71 6.12L9.88 14.29C10.4425 14.8518 11.205 15.1674 12 15.1674C12.795 15.1674 13.5575 14.8518 14.12 14.29L22.29 6.12C22.4783 5.9317 22.7337 5.82591 23 5.82591C23.2663 5.82591 23.5217 5.9317 23.71 6.12C23.8983 6.3083 24.0041 6.5637 24.0041 6.83C24.0041 7.0963 23.8983 7.3517 23.71 7.54L15.54 15.71C15.0748 16.174 14.5227 16.5418 13.9153 16.7923C13.3079 17.0428 12.6571 17.1712 12 17.17Z" fill="white"/>
</g>
<defs>
<clipPath id="clip0_1_278">
<rect width="24" height="24" fill="white"/>
</clipPath>
</defs>
</svg>
