<svg width="16" height="16" viewBox="0 0 16 16" fill="none" xmlns="http://www.w3.org/2000/svg">
<g clip-path="url(#clip0_1_52)">
<path d="M8.00003 14.1434L10.0167 15.7534C10.4754 16.1194 11.1587 15.8707 11.2747 15.2954L11.7847 12.7654L14.3647 12.702C14.9514 12.6874 15.3147 12.058 15.034 11.5427L13.7987 9.2767L15.7347 7.57003C16.1747 7.18203 16.0487 6.46603 15.502 6.25203L13.0994 5.3107L13.4854 2.75936C13.5734 2.17936 13.016 1.71203 12.46 1.8987L10.014 2.72203L8.66937 0.520031C8.36337 0.0193646 7.6367 0.0193646 7.3307 0.520031L5.98603 2.7227L3.54003 1.89936C2.98403 1.71203 2.4267 2.17936 2.5147 2.76003L2.9007 5.31136L0.498034 6.2527C-0.0479664 6.4667 -0.174633 7.1827 0.265367 7.5707L2.20137 9.27736L0.966034 11.5434C0.685367 12.0587 1.0487 12.688 1.63537 12.7027L4.21537 12.766L4.72537 15.296C4.84137 15.8714 5.5247 16.12 5.98337 15.754L8.00003 14.1434Z" fill="white"/>
</g>
<defs>
<clipPath id="clip0_1_52">
<rect width="16" height="16" fill="white"/>
</clipPath>
</defs>
</svg>
