<svg width="24" height="24" viewBox="0 0 24 24" fill="none" xmlns="http://www.w3.org/2000/svg">
<g clip-path="url(#clip0_1_244)">
<path d="M12 21.215L15.025 23.63C15.713 24.179 16.738 23.806 16.912 22.943L17.677 19.148L21.547 19.053C22.427 19.031 22.972 18.087 22.551 17.314L20.698 13.915L23.602 11.355C24.262 10.773 24.073 9.69905 23.253 9.37805L19.649 7.96605L20.228 4.13905C20.36 3.26905 19.524 2.56805 18.69 2.84805L15.021 4.08305L13.004 0.780047C12.545 0.0290469 11.455 0.0290469 10.996 0.780047L8.979 4.08405L5.31 2.84905C4.476 2.56805 3.64 3.26905 3.772 4.14005L4.351 7.96705L0.746995 9.37905C-0.0720049 9.70005 -0.262005 10.774 0.397995 11.356L3.302 13.916L1.449 17.315C1.028 18.088 1.573 19.032 2.453 19.054L6.323 19.149L7.088 22.944C7.262 23.807 8.287 24.18 8.975 23.631L12 21.215Z" fill="#06272D"/>
</g>
<defs>
<clipPath id="clip0_1_244">
<rect width="24" height="24" fill="white"/>
</clipPath>
</defs>
</svg>
