<svg width="36" height="36" viewBox="0 0 36 36" fill="none" xmlns="http://www.w3.org/2000/svg">
<path d="M35.4602 22.3546C33.056 31.9976 23.2888 37.8656 13.6447 35.4615C4.00517 33.0573 -1.86339 23.2901 0.541297 13.6477C2.9443 4.00365 12.711 -1.86548 22.3522 0.538648C31.9957 2.94277 37.8637 12.7111 35.4596 22.3546H35.4602Z" fill="#2B6C70"/>
<path d="M19.6048 8.61316L18.9212 11.3495C19.3773 11.4536 19.8371 11.5594 20.2835 11.6708L20.9612 8.95105L22.6614 9.37488L21.9651 12.1678C24.1114 12.9072 25.6803 14.0155 25.3724 16.077C25.1491 17.586 24.313 18.317 23.2025 18.5741C24.7273 19.3686 25.5032 20.5863 24.764 22.6971C23.8474 25.3183 21.6665 25.5396 18.7679 24.9911L18.0648 27.8104L16.3646 27.3866L17.0589 24.6053C16.6183 24.4959 16.1677 24.3797 15.7044 24.2538L15.0081 27.0477L13.3099 26.6249L14.013 23.7997C13.6165 23.698 13.2135 23.5893 12.8021 23.4862L10.5892 22.9354L11.4329 20.9891C11.4329 20.9891 12.1376 21.1764 12.4827 21.2596L12.7562 21.3143C13.1762 21.377 13.3686 21.0895 13.4476 20.8934L14.5599 16.4364L14.7386 16.4813C14.6709 16.4543 14.6092 16.4368 14.5618 16.4247L15.3558 13.243C15.3771 12.8819 15.2513 12.4266 14.5628 12.2548C14.5894 12.2368 13.3284 11.9471 13.3284 11.9471L13.7806 10.1317L16.1253 10.7177L16.1234 10.7255C16.4757 10.8131 16.8385 10.8971 17.2083 10.9813L17.9056 8.18933L19.6048 8.61316ZM16.2562 22.2069C17.409 22.4935 20.9637 23.6342 21.4896 21.5233C22.0372 19.3218 18.3421 18.7523 17.1898 18.4647L16.2562 22.2069ZM17.6165 16.7518C18.5766 16.991 21.5344 17.9665 22.014 16.0468C22.5135 14.0441 19.4239 13.5975 18.4632 13.3583L17.6165 16.7518Z" fill="white"/>
</svg>
