<svg width="44" height="44" viewBox="0 0 44 44" fill="none" xmlns="http://www.w3.org/2000/svg">
<path d="M43.3404 27.3223C40.402 39.1082 28.4642 46.2802 16.677 43.3418C4.89535 40.4034 -2.27733 28.4657 0.661728 16.6805C3.59873 4.89335 15.5358 -2.28003 27.3195 0.658347C39.106 3.59672 46.278 15.5358 43.3397 27.3223H43.3404Z" fill="#EA973D"/>
<path d="M23.9607 10.5269L23.1267 13.8726C23.684 13.9998 24.2453 14.1281 24.7908 14.2642L25.6189 10.9409L27.697 11.4585L26.8464 14.8716C29.4696 15.7752 31.3878 17.1303 31.0115 19.6499H31.0105C30.7376 21.4942 29.7156 22.3875 28.3582 22.7017C30.2221 23.6727 31.1699 25.1608 30.2664 27.7407C29.1462 30.9444 26.4818 31.2148 22.9392 30.5444L22.0789 33.9907L20.0017 33.4722L20.8494 30.0728C20.3111 29.9391 19.7611 29.7968 19.1951 29.6431L18.3425 33.0591L16.2673 32.5415L17.1267 29.0884C16.6421 28.9641 16.1491 28.8316 15.6462 28.7056L12.9421 28.0317L13.9734 25.6528C13.9734 25.6528 15.5033 26.0595 15.4841 26.0298C16.0721 26.1751 16.3333 25.7922 16.4363 25.5366L17.7947 20.0894L18.0144 20.144C17.9318 20.111 17.8565 20.0895 17.7986 20.0747L18.7673 16.186C18.7934 15.7446 18.6407 15.1882 17.7996 14.978C17.8312 14.9562 16.3167 14.608 16.2908 14.6021L16.8425 12.3833L19.7087 13.0991L19.7058 13.1099C20.1366 13.217 20.5809 13.3184 21.033 13.4214L21.8845 10.0093L23.9607 10.5269ZM19.8689 27.1421C21.234 27.4815 25.3527 28.8 26.1931 26.5366L26.2644 26.3062C26.9337 23.6154 22.4179 22.9194 21.0095 22.5679L19.8689 27.1421ZM21.531 20.4751C22.7045 20.7674 26.32 21.9593 26.906 19.6128C27.5167 17.1647 23.7386 16.619 22.5652 16.3267L21.531 20.4751Z" fill="white"/>
</svg>
