<svg width="16" height="16" viewBox="0 0 16 16" fill="none" xmlns="http://www.w3.org/2000/svg">
<g clip-path="url(#clip0_1_118)">
<path d="M15.1773 3.04388C14.9337 2.9424 14.6654 2.91573 14.4066 2.96726C14.1478 3.01878 13.9102 3.14618 13.724 3.33321L12 5.05721L8.94267 1.99988C8.69263 1.74992 8.35355 1.6095 8 1.6095C7.64645 1.6095 7.30737 1.74992 7.05733 1.99988L4 5.05721L2.276 3.33321C2.08953 3.1468 1.85198 3.01986 1.59338 2.96843C1.33477 2.91701 1.06673 2.94342 0.823127 3.04431C0.579528 3.1452 0.37131 3.31605 0.224798 3.53527C0.0782854 3.75448 5.62991e-05 4.01221 0 4.27588L0 11.3332C0.00105857 12.2169 0.352588 13.0642 0.97748 13.6891C1.60237 14.314 2.4496 14.6655 3.33333 14.6665H12.6667C13.5504 14.6655 14.3976 14.314 15.0225 13.6891C15.6474 13.0642 15.9989 12.2169 16 11.3332V4.27588C16.0001 4.01219 15.9219 3.7544 15.7755 3.53511C15.6291 3.31582 15.4209 3.14487 15.1773 3.04388Z" fill="#06272D"/>
</g>
<defs>
<clipPath id="clip0_1_118">
<rect width="16" height="16" fill="white"/>
</clipPath>
</defs>
</svg>
