<svg width="36" height="36" viewBox="0 0 36 36" fill="none" xmlns="http://www.w3.org/2000/svg">
<path d="M35.9023 18.0004C35.9023 27.8892 27.8861 35.9057 17.9974 35.9057C8.10859 35.9057 0.0922241 27.8892 0.0922241 18.0004C0.0922241 8.1117 8.10859 0.0953369 17.9974 0.0953369C27.886 0.0953369 35.9023 8.1117 35.9023 18.0004Z" fill="#2B6C70"/>
<path d="M15.9346 16.6425V12.5698H10.4109V9H25.8464V12.6201H20.3226V16.6425H15.9346Z" fill="white"/>
<path d="M17.9994 14.6315C23.5231 14.6315 27.9633 15.7378 27.9633 17.0953C27.9629 18.4528 23.5229 19.5592 17.9994 19.5592C12.4761 19.5591 8.03689 18.4528 8.0365 17.0953C8.0365 15.7378 12.4759 14.6315 17.9994 14.6315ZM17.9994 15.0338C12.2177 15.0339 9.22403 16.5423 8.86267 17.0953C9.22544 17.5981 12.2194 18.3521 17.9994 18.3522C23.832 18.3522 26.775 17.5981 27.1371 17.0953C26.7757 16.5925 23.7812 15.0338 17.9994 15.0338Z" fill="white"/>
<path d="M20.3227 17.8994V15.0837C19.5999 15.0334 18.8256 14.9832 18.0512 14.9832C17.3285 14.9832 16.6574 14.9832 15.9863 15.0334V17.8491C16.6058 17.8491 17.3285 17.8994 18.0512 17.8994C18.8256 17.9496 19.5999 17.9496 20.3227 17.8994Z" fill="white"/>
<path d="M17.9998 19.5586C17.2771 19.5586 16.606 19.5586 15.9349 19.5083V26.9999H20.2713V19.458C19.5485 19.5083 18.7742 19.5586 17.9998 19.5586Z" fill="white"/>
</svg>
