<svg width="36" height="36" viewBox="0 0 36 36" fill="none" xmlns="http://www.w3.org/2000/svg">
<path d="M35.9024 18.0004C35.9024 27.8892 27.8861 35.9057 17.9974 35.9057C8.10865 35.9057 0.0922852 27.8892 0.0922852 18.0004C0.0922852 8.1117 8.10865 0.0953369 17.9974 0.0953369C27.886 0.0953369 35.9024 8.1117 35.9024 18.0004Z" fill="#2B6C70"/>
<path d="M17.9985 7.33142L17.8612 7.79814V21.3412L17.9985 21.4783L24.2851 17.7623L17.9985 7.33142Z" fill="white"/>
<path d="M17.9983 7.33142L11.7118 17.7623L17.9983 21.4783V14.9049V7.33142Z" fill="white"/>
<path d="M17.9984 23.5234L17.921 23.6177V28.4421L17.9984 28.6681L24.2887 19.8093L17.9984 23.5234Z" fill="white"/>
<path d="M17.9985 28.6681V23.5234L11.7119 19.8093L17.9985 28.6681Z" fill="white"/>
<path d="M17.9984 21.4782L24.2849 17.7623L17.9984 14.9049V21.4782Z" fill="white"/>
<path d="M11.7119 17.7623L17.9984 21.4783V14.9049L11.7119 17.7623Z" fill="white"/>
</svg>
