<svg width="44" height="44" viewBox="0 0 44 44" fill="none" xmlns="http://www.w3.org/2000/svg">
<path d="M43.8807 22.0007C43.8807 34.087 34.0831 43.8849 21.9969 43.8849C9.91057 43.8849 0.112793 34.087 0.112793 22.0007C0.112793 9.91448 9.91057 0.116699 21.9969 0.116699C34.0829 0.116699 43.8807 9.91448 43.8807 22.0007Z" fill="#755DD8"/>
<path d="M21.9983 8.96045L21.8304 9.53088V26.0835L21.9983 26.2511L29.6818 21.7093L21.9983 8.96045Z" fill="#C8BDEB"/>
<path d="M21.998 8.96045L14.3145 21.7093L21.998 26.2511V18.217V8.96045Z" fill="white"/>
<path d="M21.998 28.7509L21.9034 28.8662V34.7626L21.998 35.0388L29.6862 24.2114L21.998 28.7509Z" fill="#C8BDEB"/>
<path d="M21.9983 35.0388V28.7509L14.3147 24.2114L21.9983 35.0388Z" fill="white"/>
<path d="M21.9982 26.2513L29.6816 21.7097L21.9982 18.2173V26.2513Z" fill="#9180DB"/>
<path d="M14.3147 21.7097L21.9981 26.2514V18.2173L14.3147 21.7097Z" fill="#C9C0EF"/>
</svg>
