<svg width="24" height="24" viewBox="0 0 24 24" fill="none" xmlns="http://www.w3.org/2000/svg">
<g clip-path="url(#clip0_1_212)">
<path d="M5.07005 20.6331C5.06405 20.6461 5.07005 20.6201 5.07005 20.6331V20.6331Z" fill="black"/>
<path d="M22.332 21.4902C22.0698 21.7011 21.7626 21.849 21.4342 21.9225C21.1058 21.996 20.7649 21.9932 20.4377 21.9143C20.1106 21.8354 19.8059 21.6824 19.5471 21.4673C19.2883 21.2521 19.0824 20.9805 18.945 20.6732C18.8743 20.4794 18.7457 20.3121 18.5767 20.1939C18.4076 20.0756 18.2063 20.0122 18 20.0122C17.7938 20.0122 17.5925 20.0756 17.4234 20.1939C17.2544 20.3121 17.1258 20.4794 17.055 20.6732C16.8696 21.061 16.5782 21.3883 16.2146 21.6175C15.8509 21.8466 15.4299 21.9682 15 21.9682C14.5702 21.9682 14.1492 21.8466 13.7855 21.6175C13.4219 21.3883 13.1305 21.061 12.945 20.6732C12.8743 20.4794 12.7457 20.3121 12.5767 20.1939C12.4076 20.0756 12.2063 20.0122 12 20.0122C11.7938 20.0122 11.5925 20.0756 11.4234 20.1939C11.2544 20.3121 11.1258 20.4794 11.055 20.6732C10.8687 21.0649 10.5743 21.3951 10.2064 21.6249C9.83857 21.8548 9.41267 21.9746 8.97896 21.9703C8.54524 21.966 8.1218 21.8377 7.75859 21.6006C7.39538 21.3635 7.10755 21.0275 6.92905 20.6322C6.85084 20.4506 6.72112 20.2958 6.55593 20.1871C6.39074 20.0784 6.19731 20.0204 5.99955 20.0204C5.80179 20.0204 5.60836 20.0784 5.44317 20.1871C5.27797 20.2958 5.14826 20.4506 5.07005 20.6322C4.93603 20.9437 4.73203 21.2202 4.47389 21.4401C4.21574 21.66 3.91039 21.8175 3.58153 21.9002C3.25268 21.983 2.90917 21.9889 2.57767 21.9175C2.24617 21.846 1.93559 21.6991 1.67005 21.4882C1.57221 21.4004 1.45803 21.3326 1.33402 21.2889C1.21002 21.2452 1.07861 21.2263 0.947308 21.2334C0.816006 21.2404 0.68738 21.2733 0.568773 21.3301C0.450166 21.3868 0.343902 21.4664 0.256048 21.5642C0.168194 21.6621 0.10047 21.7762 0.0567426 21.9003C0.0130155 22.0243 -0.00585817 22.1557 0.00119909 22.287C0.00825634 22.4183 0.0411064 22.5469 0.0978735 22.6655C0.154641 22.7841 0.234213 22.8904 0.332048 22.9782C1.12988 23.6619 2.15565 24.0205 3.20567 23.9829C4.25569 23.9453 5.25317 23.5142 6.00005 22.7752C6.80726 23.5488 7.88205 23.9806 9.00005 23.9806C10.118 23.9806 11.1928 23.5488 12 22.7752C12.8073 23.5488 13.882 23.9806 15 23.9806C16.118 23.9806 17.1928 23.5488 18 22.7752C18.7472 23.514 19.7449 23.9447 20.795 23.9818C21.8451 24.0188 22.8707 23.6595 23.668 22.9752C23.8501 22.7943 23.9556 22.5504 23.9627 22.2939C23.9699 22.0374 23.8781 21.7879 23.7065 21.5971C23.5349 21.4064 23.2965 21.2889 23.0407 21.269C22.7848 21.2491 22.5311 21.3283 22.332 21.4902Z" fill="black"/>
<path d="M2.00001 17.0001V11.1691C2.00007 10.9039 2.10546 10.6496 2.29301 10.4621L9.87801 2.87911C10.4417 2.31804 11.2047 2.00306 12 2.00306C12.7953 2.00306 13.5583 2.31804 14.122 2.87911L21.707 10.4651C21.892 10.6514 21.9972 10.9025 22 11.1651V17.0001C22 17.2653 22.1054 17.5197 22.2929 17.7072C22.4804 17.8948 22.7348 18.0001 23 18.0001C23.2652 18.0001 23.5196 17.8948 23.7071 17.7072C23.8947 17.5197 24 17.2653 24 17.0001V11.1691C24.0011 10.775 23.924 10.3846 23.7731 10.0205C23.6222 9.65641 23.4006 9.3259 23.121 9.04811L15.536 1.46211C14.5973 0.526103 13.3257 0.000488281 12 0.000488281C10.6744 0.000488281 9.40277 0.526103 8.46401 1.46211L0.879012 9.04811C0.599438 9.3259 0.377782 9.65641 0.226895 10.0205C0.0760072 10.3846 -0.0011104 10.775 1.20795e-05 11.1691V17.0001C1.20795e-05 17.2653 0.105369 17.5197 0.292905 17.7072C0.480442 17.8948 0.734796 18.0001 1.00001 18.0001C1.26523 18.0001 1.51958 17.8948 1.70712 17.7072C1.89466 17.5197 2.00001 17.2653 2.00001 17.0001Z" fill="black"/>
<path d="M12 13.0308C10.9041 13.0312 9.83867 13.3916 8.96762 14.0567C8.09656 14.7218 7.46815 15.6547 7.17904 16.7118C7.13622 16.8613 7.12852 17.0187 7.15652 17.1717C7.18453 17.3247 7.2475 17.4691 7.34051 17.5938C7.43352 17.7185 7.55407 17.82 7.69275 17.8904C7.83144 17.9608 7.98451 17.9982 8.14004 17.9998C8.36704 17.9936 8.58571 17.913 8.76229 17.7702C8.93887 17.6274 9.06354 17.4305 9.11704 17.2098C9.29706 16.5842 9.67567 16.0342 10.1957 15.6426C10.7158 15.2511 11.3491 15.0394 12 15.0394C12.651 15.0394 13.2843 15.2511 13.8044 15.6426C14.3244 16.0342 14.703 16.5842 14.883 17.2098C14.9365 17.4305 15.0612 17.6274 15.2378 17.7702C15.4144 17.913 15.633 17.9936 15.86 17.9998C16.0156 17.9982 16.1686 17.9608 16.3073 17.8904C16.446 17.82 16.5666 17.7185 16.6596 17.5938C16.7526 17.4691 16.8156 17.3247 16.8436 17.1717C16.8716 17.0187 16.8639 16.8613 16.821 16.7118C16.5319 15.6547 15.9035 14.7218 15.0325 14.0567C14.1614 13.3916 13.096 13.0312 12 13.0308Z" fill="black"/>
</g>
<defs>
<clipPath id="clip0_1_212">
<rect width="24" height="24" fill="white"/>
</clipPath>
</defs>
</svg>
