<svg width="63" height="44" viewBox="0 0 63 44" fill="none" xmlns="http://www.w3.org/2000/svg">
<g clip-path="url(#clip0_1_472)">
<path d="M37.4416 10.4692H24.6083V33.5285H37.4416V10.4692Z" fill="#FF5F00"/>
<path d="M25.4227 21.9996C25.4227 17.5182 27.5004 13.2404 31.0041 10.47C24.6486 5.45891 15.4004 6.55891 10.3893 12.9552C5.41895 19.3108 6.51895 28.5182 12.9153 33.5293C18.2523 37.7256 25.7078 37.7256 31.0449 33.5293C27.5004 30.7589 25.4227 26.4811 25.4227 21.9996Z" fill="#EB001B"/>
<path d="M54.756 21.9996C54.756 30.1071 48.1968 36.6663 40.0894 36.6663C36.7894 36.6663 33.6116 35.5663 31.0449 33.5293C37.4005 28.5182 38.5005 19.3108 33.4894 12.9145C32.756 12.0182 31.9412 11.1626 31.0449 10.47C37.4005 5.45891 46.6486 6.55891 51.619 12.9552C53.656 15.5219 54.756 18.6996 54.756 21.9996Z" fill="#F79E1B"/>
<path d="M52.8477 31.0258V30.5366H53.0515V30.4551H52.5216V30.5366H52.7254V31.0258H52.8477ZM53.7853 31.0258V30.4551H53.6222L53.4592 30.8627L53.2961 30.4551H53.1331V31.0258H53.2554V30.5774L53.4184 30.9443H53.5407L53.7038 30.5774V31.0258H53.7853Z" fill="#F79E1B"/>
</g>
<defs>
<clipPath id="clip0_1_472">
<rect width="62.0889" height="44" fill="white"/>
</clipPath>
</defs>
</svg>
