<svg width="24" height="24" viewBox="0 0 24 24" fill="none" xmlns="http://www.w3.org/2000/svg">
<g clip-path="url(#clip0_1_267)">
<path d="M20 8C18.9392 8 17.9217 7.57857 17.1716 6.82843C16.4215 6.07828 16 5.06087 16 4C16 2.93913 16.4215 1.92172 17.1716 1.17157C17.9217 0.421427 18.9392 0 20 0C21.0609 0 22.0783 0.421427 22.8285 1.17157C23.5786 1.92172 24 2.93913 24 4C24 5.06087 23.5786 6.07828 22.8285 6.82843C22.0783 7.57857 21.0609 8 20 8ZM21.452 24H12.589C12.1407 24.004 11.6993 23.8895 11.3093 23.6683C10.9193 23.4471 10.5946 23.1269 10.368 22.74C10.1459 22.3672 10.0263 21.9423 10.0212 21.5084C10.0161 21.0745 10.1258 20.6469 10.339 20.269L14.775 12.31C15.0034 11.9155 15.3316 11.588 15.7265 11.3604C16.1214 11.1327 16.5692 11.0129 17.025 11.0129C17.4809 11.0129 17.9287 11.1327 18.3236 11.3604C18.7185 11.588 19.0466 11.9155 19.275 12.31L23.7 20.263C23.9137 20.6415 24.0236 21.0697 24.0187 21.5043C24.0138 21.9389 23.8942 22.3645 23.672 22.738C23.4455 23.1249 23.121 23.4452 22.7313 23.6668C22.3416 23.8883 21.9003 24.0033 21.452 24ZM8.64402 23.754C8.24463 23.0817 8.02944 22.316 8.02013 21.5341C8.01083 20.7522 8.20774 19.9816 8.59102 19.3L13.028 11.34C13.3904 10.6889 13.9081 10.1376 14.535 9.735L12.944 6.755C12.6575 6.22424 12.2327 5.78088 11.7147 5.47187C11.1966 5.16286 10.6047 4.99972 10.0015 4.99972C9.39835 4.99972 8.8064 5.16286 8.28839 5.47187C7.77038 5.78088 7.34559 6.22424 7.05902 6.755L0.406022 19.055C0.130126 19.5652 -0.00862594 20.1382 0.00333759 20.7181C0.0153011 21.298 0.177571 21.8649 0.474274 22.3632C0.770978 22.8616 1.19196 23.2744 1.69603 23.5613C2.20011 23.8482 2.77002 23.9994 3.35002 24H8.80002C8.74502 23.92 8.69302 23.838 8.64402 23.754Z" fill="#E6B2BA"/>
</g>
<defs>
<clipPath id="clip0_1_267">
<rect width="24" height="24" fill="white"/>
</clipPath>
</defs>
</svg>
