<svg width="44" height="44" viewBox="0 0 44 44" fill="none" xmlns="http://www.w3.org/2000/svg">
<path d="M43.8807 22.0007C43.8807 34.087 34.0831 43.8849 21.9969 43.8849C9.91057 43.8849 0.112793 34.087 0.112793 22.0007C0.112793 9.91448 9.91057 0.116699 21.9969 0.116699C34.0829 0.116699 43.8807 9.91448 43.8807 22.0007Z" fill="#69AD96"/>
<path d="M19.4757 20.3408V15.3631H12.7245V11H31.5901V15.4246H24.8388V20.3408H19.4757Z" fill="white"/>
<path d="M22.0002 17.8828C28.7508 17.8828 34.1761 19.2346 34.177 20.8936C34.177 22.5527 28.7513 23.9052 22.0002 23.9053C15.249 23.9053 9.82251 22.5528 9.82251 20.8936C9.82345 19.2345 15.2496 17.8828 22.0002 17.8828ZM21.9993 18.374C14.9332 18.3741 11.2742 20.2175 10.8323 20.8936C11.275 21.5081 14.9341 22.4296 21.9993 22.4297C29.1279 22.4297 32.7246 21.5081 33.1672 20.8936C32.7253 20.2789 29.0656 18.374 21.9993 18.374Z" fill="white"/>
<path d="M24.839 21.8772V18.4359C23.9556 18.3744 23.0092 18.313 22.0628 18.313C21.1794 18.313 20.3592 18.313 19.5389 18.3744V21.8158C20.2961 21.8158 21.1794 21.8772 22.0628 21.8772C23.0092 21.9387 23.9556 21.9387 24.839 21.8772Z" fill="white"/>
<path d="M21.9999 23.9046C21.1166 23.9046 20.2963 23.9046 19.4761 23.8432V32.9996H24.7761V23.7817C23.8928 23.8432 22.9463 23.9046 21.9999 23.9046Z" fill="white"/>
</svg>
