<svg width="91" height="44" viewBox="0 0 91 44" fill="none" xmlns="http://www.w3.org/2000/svg">
<path d="M36.8678 11.3884L27.9482 32.6695H22.1288L17.7395 15.6862C17.473 14.6402 17.2413 14.2569 16.4308 13.8162C15.1076 13.0984 12.9225 12.4249 11 12.0069L11.1306 11.3884H20.498C21.692 11.3884 22.7654 12.1833 23.0365 13.5583L25.3547 25.8726L31.0839 11.3881H36.8678V11.3884ZM59.669 25.7214C59.6924 20.1047 51.9023 19.7953 51.9559 17.2862C51.9725 16.5226 52.6996 15.7107 54.291 15.5035C55.0799 15.4002 57.2532 15.3214 59.7183 16.4559L60.6852 11.943C59.3606 11.4622 57.6563 10.9995 55.5358 10.9995C50.0944 10.9995 46.2649 13.8922 46.2327 18.0342C46.1975 21.0979 48.966 22.8075 51.0517 23.8255C53.1974 24.868 53.9174 25.538 53.9092 26.4705C53.894 27.898 52.1979 28.5282 50.6128 28.553C47.8458 28.5956 46.2401 27.8043 44.9602 27.2093L43.9624 31.8715C45.2487 32.4616 47.6229 32.9764 50.0844 33.0023C55.868 33.0023 59.6512 30.1455 59.669 25.7214ZM74.0378 32.6695H79.1294L74.6851 11.3884H69.9856C68.9289 11.3884 68.0375 12.0037 67.6429 12.9497L59.3819 32.6695H65.1626L66.3102 29.4909H73.3732L74.0378 32.6695ZM67.8952 25.1292L70.7928 17.1389L72.4606 25.1292H67.8952ZM44.7335 11.3884L40.1812 32.6695H34.6763L39.2303 11.3884H44.7335Z" fill="#1434CB"/>
</svg>
