<svg width="38" height="38" viewBox="0 0 38 38" fill="none" xmlns="http://www.w3.org/2000/svg">
<g clip-path="url(#clip0_1_288)">
<path d="M33.2501 36.4167C31.4768 36.402 29.7768 35.7078 28.5001 34.4771C27.222 35.7018 25.5202 36.3856 23.7501 36.3856C21.9799 36.3856 20.2781 35.7018 19.0001 34.4771C17.722 35.7018 16.0202 36.3856 14.2501 36.3856C12.4799 36.3856 10.7781 35.7018 9.50006 34.4771C8.31689 35.6465 6.73722 36.3282 5.0747 36.3869C3.41217 36.4455 1.78838 35.8769 0.525728 34.7937C0.367869 34.6558 0.238972 34.4879 0.146515 34.2998C0.0540576 34.1116 -0.00011896 33.907 -0.0128717 33.6978C-0.0256245 33.4885 0.00330052 33.2788 0.0722251 33.0809C0.14115 32.8829 0.248702 32.7006 0.388641 32.5445C0.52858 32.3884 0.698121 32.2617 0.887428 32.1716C1.07673 32.0816 1.28204 32.03 1.49142 32.0199C1.70081 32.0099 1.91012 32.0415 2.10719 32.1129C2.30427 32.1844 2.4852 32.2942 2.63948 32.4362C3.05535 32.7707 3.54255 33.0053 4.06346 33.1216C4.58436 33.238 5.12505 33.2331 5.64376 33.1073C6.16248 32.9816 6.64535 32.7383 7.05511 32.3962C7.46486 32.0542 7.79053 31.6226 8.00698 31.1347C8.11684 30.8267 8.31935 30.5603 8.58669 30.3721C8.85403 30.1838 9.1731 30.083 9.50006 30.0833C9.8276 30.0833 10.1471 30.1849 10.4145 30.374C10.6819 30.5632 10.8841 30.8306 10.9931 31.1394C11.2861 31.7551 11.7475 32.2751 12.324 32.6392C12.9004 33.0033 13.5683 33.1965 14.2501 33.1965C14.9319 33.1965 15.5997 33.0033 16.1761 32.6392C16.7526 32.2751 17.214 31.7551 17.507 31.1394C17.6161 30.8306 17.8182 30.5632 18.0856 30.374C18.353 30.1849 18.6725 30.0833 19.0001 30.0833C19.3276 30.0833 19.6471 30.1849 19.9145 30.374C20.1819 30.5632 20.3841 30.8306 20.4931 31.1394C20.7861 31.7551 21.2475 32.2751 21.824 32.6392C22.4004 33.0033 23.0683 33.1965 23.7501 33.1965C24.4319 33.1965 25.0997 33.0033 25.6761 32.6392C26.2526 32.2751 26.714 31.7551 27.007 31.1394C27.1161 30.8306 27.3182 30.5632 27.5856 30.374C27.853 30.1849 28.1725 30.0833 28.5001 30.0833C28.8276 30.0833 29.1471 30.1849 29.4145 30.374C29.6819 30.5632 29.8841 30.8306 29.9931 31.1394C30.2095 31.6272 30.535 32.0587 30.9446 32.4007C31.3541 32.7427 31.8368 32.9861 32.3553 33.112C32.8738 33.2379 33.4143 33.2431 33.9351 33.127C34.4559 33.0109 34.9431 32.7767 35.3591 32.4425C35.6735 32.1773 36.0788 32.0449 36.4891 32.0733C36.8995 32.1018 37.2827 32.2887 37.5576 32.5947C37.8325 32.9007 37.9775 33.3016 37.962 33.7127C37.9465 34.1237 37.7716 34.5126 37.4744 34.7969C36.3152 35.841 34.8101 36.4181 33.2501 36.4167ZM33.2501 26.9167C31.4768 26.902 29.7768 26.2078 28.5001 24.9771C27.222 26.2018 25.5202 26.8856 23.7501 26.8856C21.9799 26.8856 20.2781 26.2018 19.0001 24.9771C17.722 26.2018 16.0202 26.8856 14.2501 26.8856C12.4799 26.8856 10.7781 26.2018 9.50006 24.9771C8.31689 26.1465 6.73722 26.8282 5.0747 26.8869C3.41217 26.9455 1.78838 26.3769 0.525728 25.2938C0.367869 25.1558 0.238972 24.9879 0.146515 24.7998C0.0540576 24.6116 -0.00011896 24.407 -0.0128717 24.1978C-0.0256245 23.9885 0.00330052 23.7788 0.0722251 23.5809C0.14115 23.3829 0.248702 23.2006 0.388641 23.0445C0.52858 22.8884 0.698121 22.7617 0.887428 22.6716C1.07673 22.5816 1.28204 22.53 1.49142 22.5199C1.70081 22.5099 1.91012 22.5415 2.10719 22.6129C2.30427 22.6844 2.4852 22.7942 2.63948 22.9362C3.05535 23.2707 3.54255 23.5053 4.06346 23.6216C4.58436 23.738 5.12505 23.7331 5.64376 23.6073C6.16248 23.4816 6.64535 23.2383 7.05511 22.8962C7.46486 22.5542 7.79053 22.1226 8.00698 21.6347C8.11684 21.3267 8.31935 21.0603 8.58669 20.8721C8.85403 20.6838 9.1731 20.583 9.50006 20.5833C9.8276 20.5833 10.1471 20.6849 10.4145 20.874C10.6819 21.0632 10.8841 21.3306 10.9931 21.6394C11.2861 22.2551 11.7475 22.7751 12.324 23.1392C12.9004 23.5033 13.5683 23.6965 14.2501 23.6965C14.9319 23.6965 15.5997 23.5033 16.1761 23.1392C16.7526 22.7751 17.214 22.2551 17.507 21.6394C17.6161 21.3306 17.8182 21.0632 18.0856 20.874C18.353 20.6849 18.6725 20.5833 19.0001 20.5833C19.3276 20.5833 19.6471 20.6849 19.9145 20.874C20.1819 21.0632 20.3841 21.3306 20.4931 21.6394C20.7861 22.2551 21.2475 22.7751 21.824 23.1392C22.4004 23.5033 23.0683 23.6965 23.7501 23.6965C24.4319 23.6965 25.0997 23.5033 25.6761 23.1392C26.2526 22.7751 26.714 22.2551 27.007 21.6394C27.1161 21.3306 27.3182 21.0632 27.5856 20.874C27.853 20.6849 28.1725 20.5833 28.5001 20.5833C28.8276 20.5833 29.1471 20.6849 29.4145 20.874C29.6819 21.0632 29.8841 21.3306 29.9931 21.6394C30.2095 22.1272 30.535 22.5587 30.9446 22.9007C31.3541 23.2427 31.8368 23.4861 32.3553 23.612C32.8738 23.7379 33.4143 23.7431 33.9351 23.627C34.4559 23.5109 34.9431 23.2767 35.3591 22.9425C35.6735 22.6773 36.0788 22.5449 36.4891 22.5733C36.8995 22.6018 37.2827 22.7887 37.5576 23.0947C37.8325 23.4007 37.9775 23.8016 37.962 24.2127C37.9465 24.6237 37.7716 25.0126 37.4744 25.2969C36.3152 26.341 34.8101 26.9181 33.2501 26.9167ZM33.2501 17.4167C31.4768 17.402 29.7768 16.7078 28.5001 15.4771C27.222 16.7018 25.5202 17.3856 23.7501 17.3856C21.9799 17.3856 20.2781 16.7018 19.0001 15.4771C17.722 16.7018 16.0202 17.3856 14.2501 17.3856C12.4799 17.3856 10.7781 16.7018 9.50006 15.4771C8.31689 16.6465 6.73722 17.3282 5.0747 17.3869C3.41217 17.4455 1.78838 16.8769 0.525728 15.7938C0.359378 15.6584 0.222255 15.4907 0.122676 15.3008C0.0230981 15.1108 -0.0368598 14.9027 -0.0535602 14.6889C-0.0702605 14.4751 -0.0433551 14.2601 0.0255238 14.057C0.0944028 13.8539 0.20382 13.6669 0.347137 13.5074C0.490454 13.3479 0.664685 13.2191 0.85926 13.129C1.05383 13.0388 1.2647 12.9891 1.47906 12.9829C1.69342 12.9767 1.90681 13.0141 2.10628 13.0928C2.30575 13.1715 2.48716 13.29 2.63948 13.4409C3.05535 13.7755 3.54255 14.01 4.06346 14.1264C4.58436 14.2427 5.12505 14.2379 5.64376 14.1121C6.16248 13.9863 6.64535 13.743 7.05511 13.401C7.46486 13.0589 7.79053 12.6273 8.00698 12.1394C8.11605 11.8306 8.31822 11.5632 8.58563 11.374C8.85304 11.1849 9.17252 11.0833 9.50006 11.0833C9.8276 11.0833 10.1471 11.1849 10.4145 11.374C10.6819 11.5632 10.8841 11.8306 10.9931 12.1394C11.2861 12.7551 11.7475 13.2751 12.324 13.6392C12.9004 14.0033 13.5683 14.1965 14.2501 14.1965C14.9319 14.1965 15.5997 14.0033 16.1761 13.6392C16.7526 13.2751 17.214 12.7551 17.507 12.1394C17.6161 11.8306 17.8182 11.5632 18.0856 11.374C18.353 11.1849 18.6725 11.0833 19.0001 11.0833C19.3276 11.0833 19.6471 11.1849 19.9145 11.374C20.1819 11.5632 20.3841 11.8306 20.4931 12.1394C20.7861 12.7551 21.2475 13.2751 21.824 13.6392C22.4004 14.0033 23.0683 14.1965 23.7501 14.1965C24.4319 14.1965 25.0997 14.0033 25.6761 13.6392C26.2526 13.2751 26.714 12.7551 27.007 12.1394C27.1161 11.8306 27.3182 11.5632 27.5856 11.374C27.853 11.1849 28.1725 11.0833 28.5001 11.0833C28.8276 11.0833 29.1471 11.1849 29.4145 11.374C29.6819 11.5632 29.8841 11.8306 29.9931 12.1394C30.2095 12.6272 30.535 13.0587 30.9446 13.4007C31.3541 13.7427 31.8368 13.9861 32.3553 14.112C32.8738 14.2379 33.4143 14.2431 33.9351 14.127C34.4559 14.0109 34.9431 13.7767 35.3591 13.4425C35.6735 13.1773 36.0788 13.0449 36.4891 13.0733C36.8995 13.1018 37.2827 13.2887 37.5576 13.5947C37.8325 13.9007 37.9775 14.3016 37.962 14.7127C37.9465 15.1237 37.7716 15.5126 37.4744 15.7969C36.3152 16.841 34.8101 17.4181 33.2501 17.4167ZM33.2501 7.91667C31.4768 7.90196 29.7768 7.20776 28.5001 5.97708C27.222 7.20183 25.5202 7.88557 23.7501 7.88557C21.9799 7.88557 20.2781 7.20183 19.0001 5.97708C17.722 7.20183 16.0202 7.88557 14.2501 7.88557C12.4799 7.88557 10.7781 7.20183 9.50006 5.97708C8.31689 7.14649 6.73722 7.82821 5.0747 7.88687C3.41217 7.94553 1.78838 7.37686 0.525728 6.29375C0.359378 6.15841 0.222255 5.99069 0.122676 5.80076C0.0230981 5.61083 -0.0368598 5.40265 -0.0535602 5.18885C-0.0702605 4.97506 -0.0433551 4.76009 0.0255238 4.557C0.0944028 4.35392 0.20382 4.16694 0.347137 4.00741C0.490454 3.84788 0.664685 3.71913 0.85926 3.62897C1.05383 3.5388 1.2647 3.4891 1.47906 3.48288C1.69342 3.47667 1.90681 3.51406 2.10628 3.59279C2.30575 3.67153 2.48716 3.78996 2.63948 3.94092C3.05535 4.27548 3.54255 4.51 4.06346 4.62638C4.58436 4.74275 5.12505 4.73786 5.64376 4.61208C6.16248 4.4863 6.64535 4.243 7.05511 3.90097C7.46486 3.55893 7.79053 3.12731 8.00698 2.63942C8.11605 2.33057 8.31822 2.06315 8.58563 1.87401C8.85304 1.68487 9.17252 1.58331 9.50006 1.58333C9.8276 1.58331 10.1471 1.68487 10.4145 1.87401C10.6819 2.06315 10.8841 2.33057 10.9931 2.63942C11.2861 3.25507 11.7475 3.77508 12.324 4.13917C12.9004 4.50325 13.5683 4.6965 14.2501 4.6965C14.9319 4.6965 15.5997 4.50325 16.1761 4.13917C16.7526 3.77508 17.214 3.25507 17.507 2.63942C17.6161 2.33057 17.8182 2.06315 18.0856 1.87401C18.353 1.68487 18.6725 1.58331 19.0001 1.58333C19.3276 1.58331 19.6471 1.68487 19.9145 1.87401C20.1819 2.06315 20.3841 2.33057 20.4931 2.63942C20.7861 3.25507 21.2475 3.77508 21.824 4.13917C22.4004 4.50325 23.0683 4.6965 23.7501 4.6965C24.4319 4.6965 25.0997 4.50325 25.6761 4.13917C26.2526 3.77508 26.714 3.25507 27.007 2.63942C27.1161 2.33057 27.3182 2.06315 27.5856 1.87401C27.853 1.68487 28.1725 1.58331 28.5001 1.58333C28.8276 1.58331 29.1471 1.68487 29.4145 1.87401C29.6819 2.06315 29.8841 2.33057 29.9931 2.63942C30.2095 3.12718 30.535 3.55871 30.9446 3.90073C31.3541 4.24275 31.8368 4.4861 32.3553 4.61202C32.8738 4.73794 33.4143 4.74306 33.9351 4.62697C34.4559 4.51089 34.9431 4.27671 35.3591 3.9425C35.5123 3.79586 35.6935 3.68152 35.8918 3.60624C36.0901 3.53097 36.3015 3.49631 36.5134 3.50431C36.7254 3.51232 36.9336 3.56283 37.1256 3.65285C37.3177 3.74286 37.4897 3.87055 37.6315 4.02833C37.7732 4.18611 37.8818 4.37076 37.9508 4.57133C38.0199 4.77189 38.0479 4.98428 38.0332 5.19588C38.0186 5.40748 37.9616 5.61398 37.8656 5.80312C37.7696 5.99226 37.6365 6.16018 37.4744 6.29692C36.3152 7.34099 34.8101 7.91811 33.2501 7.91667Z" fill="url(#paint0_linear_1_288)"/>
</g>
<defs>
<linearGradient id="paint0_linear_1_288" x1="-0.0583687" y1="19" x2="38.037" y2="19" gradientUnits="userSpaceOnUse">
<stop stop-color="#CB8E38"/>
<stop offset="1" stop-color="#D1B04B"/>
</linearGradient>
<clipPath id="clip0_1_288">
<rect width="38" height="38" fill="white"/>
</clipPath>
</defs>
</svg>
