<svg width="24" height="24" viewBox="0 0 24 24" fill="none" xmlns="http://www.w3.org/2000/svg">
<g clip-path="url(#clip0_1_233)">
<path d="M21 23C19.8801 22.9907 18.8063 22.5523 18 21.775C17.1928 22.5485 16.118 22.9804 15 22.9804C13.882 22.9804 12.8072 22.5485 12 21.775C11.1928 22.5485 10.118 22.9804 8.99999 22.9804C7.88199 22.9804 6.8072 22.5485 5.99999 21.775C5.25273 22.5136 4.25504 22.9441 3.20503 22.9812C2.15501 23.0182 1.12946 22.6591 0.331992 21.975C0.232292 21.8879 0.150883 21.7818 0.0924891 21.663C0.0340951 21.5442 -0.000121713 21.415 -0.00817608 21.2828C-0.0162304 21.1506 0.00203796 21.0182 0.0455693 20.8932C0.0891006 20.7681 0.157028 20.653 0.245411 20.5544C0.333794 20.4558 0.440872 20.3758 0.560434 20.3189C0.679996 20.262 0.80966 20.2295 0.941905 20.2231C1.07415 20.2168 1.20634 20.2367 1.33081 20.2818C1.45528 20.327 1.56955 20.3964 1.66699 20.486C1.92965 20.6973 2.23735 20.8454 2.56635 20.9189C2.89534 20.9924 3.23683 20.9893 3.56444 20.9099C3.89205 20.8305 4.19702 20.6768 4.45581 20.4608C4.7146 20.2447 4.92029 19.9721 5.05699 19.664C5.12638 19.4695 5.25428 19.3013 5.42313 19.1824C5.59197 19.0635 5.79349 18.9998 5.99999 19C6.20686 19 6.40864 19.0641 6.57753 19.1836C6.74642 19.303 6.87411 19.4719 6.94299 19.667C7.12801 20.0558 7.41945 20.3843 7.78352 20.6142C8.14759 20.8442 8.56938 20.9662 8.99999 20.9662C9.4306 20.9662 9.85239 20.8442 10.2165 20.6142C10.5805 20.3843 10.872 20.0558 11.057 19.667C11.1259 19.4719 11.2536 19.303 11.4225 19.1836C11.5913 19.0641 11.7931 19 12 19C12.2069 19 12.4086 19.0641 12.5775 19.1836C12.7464 19.303 12.8741 19.4719 12.943 19.667C13.128 20.0558 13.4195 20.3843 13.7835 20.6142C14.1476 20.8442 14.5694 20.9662 15 20.9662C15.4306 20.9662 15.8524 20.8442 16.2165 20.6142C16.5805 20.3843 16.872 20.0558 17.057 19.667C17.1259 19.4719 17.2536 19.303 17.4225 19.1836C17.5913 19.0641 17.7931 19 18 19C18.2069 19 18.4086 19.0641 18.5775 19.1836C18.7464 19.303 18.8741 19.4719 18.943 19.667C19.0796 19.9751 19.2852 20.2476 19.5439 20.4636C19.8026 20.6796 20.1074 20.8333 20.4349 20.9129C20.7624 20.9924 21.1037 20.9956 21.4327 20.9223C21.7616 20.849 22.0693 20.7011 22.332 20.49C22.5306 20.3225 22.7866 20.2389 23.0457 20.2568C23.3049 20.2748 23.5469 20.3929 23.7205 20.5861C23.8942 20.7794 23.9858 21.0326 23.976 21.2922C23.9661 21.5518 23.8557 21.7974 23.668 21.977C22.9359 22.6364 21.9853 23.0009 21 23ZM21 17C19.8801 16.9907 18.8063 16.5523 18 15.775C17.1928 16.5485 16.118 16.9804 15 16.9804C13.882 16.9804 12.8072 16.5485 12 15.775C11.1928 16.5485 10.118 16.9804 8.99999 16.9804C7.88199 16.9804 6.8072 16.5485 5.99999 15.775C5.25273 16.5136 4.25504 16.9441 3.20503 16.9812C2.15501 17.0182 1.12946 16.6591 0.331992 15.975C0.232292 15.8879 0.150883 15.7818 0.0924891 15.663C0.0340951 15.5442 -0.000121713 15.415 -0.00817608 15.2828C-0.0162304 15.1506 0.00203796 15.0182 0.0455693 14.8932C0.0891006 14.7681 0.157028 14.653 0.245411 14.5544C0.333794 14.4558 0.440872 14.3758 0.560434 14.3189C0.679996 14.262 0.80966 14.2295 0.941905 14.2231C1.07415 14.2168 1.20634 14.2367 1.33081 14.2818C1.45528 14.327 1.56955 14.3964 1.66699 14.486C1.92965 14.6973 2.23735 14.8454 2.56635 14.9189C2.89534 14.9924 3.23683 14.9893 3.56444 14.9099C3.89205 14.8305 4.19702 14.6768 4.45581 14.4608C4.7146 14.2447 4.92029 13.9721 5.05699 13.664C5.12638 13.4695 5.25428 13.3013 5.42313 13.1824C5.59197 13.0635 5.79349 12.9998 5.99999 13C6.20686 13 6.40864 13.0641 6.57753 13.1836C6.74642 13.303 6.87411 13.4719 6.94299 13.667C7.12801 14.0558 7.41945 14.3843 7.78352 14.6142C8.14759 14.8442 8.56938 14.9662 8.99999 14.9662C9.4306 14.9662 9.85239 14.8442 10.2165 14.6142C10.5805 14.3843 10.872 14.0558 11.057 13.667C11.1259 13.4719 11.2536 13.303 11.4225 13.1836C11.5913 13.0641 11.7931 13 12 13C12.2069 13 12.4086 13.0641 12.5775 13.1836C12.7464 13.303 12.8741 13.4719 12.943 13.667C13.128 14.0558 13.4195 14.3843 13.7835 14.6142C14.1476 14.8442 14.5694 14.9662 15 14.9662C15.4306 14.9662 15.8524 14.8442 16.2165 14.6142C16.5805 14.3843 16.872 14.0558 17.057 13.667C17.1259 13.4719 17.2536 13.303 17.4225 13.1836C17.5913 13.0641 17.7931 13 18 13C18.2069 13 18.4086 13.0641 18.5775 13.1836C18.7464 13.303 18.8741 13.4719 18.943 13.667C19.0796 13.9751 19.2852 14.2476 19.5439 14.4636C19.8026 14.6796 20.1074 14.8333 20.4349 14.9129C20.7624 14.9924 21.1037 14.9956 21.4327 14.9223C21.7616 14.849 22.0693 14.7011 22.332 14.49C22.5306 14.3225 22.7866 14.2389 23.0457 14.2569C23.3049 14.2748 23.5469 14.3929 23.7205 14.5861C23.8942 14.7794 23.9858 15.0326 23.976 15.2922C23.9661 15.5518 23.8557 15.7974 23.668 15.977C22.9359 16.6364 21.9853 17.0009 21 17ZM21 11C19.8801 10.9907 18.8063 10.5523 18 9.775C17.1928 10.5485 16.118 10.9804 15 10.9804C13.882 10.9804 12.8072 10.5485 12 9.775C11.1928 10.5485 10.118 10.9804 8.99999 10.9804C7.88199 10.9804 6.8072 10.5485 5.99999 9.775C5.25273 10.5136 4.25504 10.9441 3.20503 10.9812C2.15501 11.0182 1.12946 10.6591 0.331992 9.975C0.226929 9.88952 0.140325 9.78359 0.0774333 9.66364C0.0145417 9.54368 -0.0233265 9.4122 -0.0338741 9.27717C-0.0444216 9.14214 -0.0274288 9.00637 0.0160737 8.87811C0.0595763 8.74984 0.128682 8.63175 0.219198 8.531C0.309714 8.43024 0.419754 8.34892 0.542644 8.29198C0.665533 8.23503 0.79871 8.20364 0.934095 8.19972C1.06948 8.19579 1.20425 8.21941 1.33024 8.26913C1.45622 8.31886 1.57079 8.39366 1.66699 8.489C1.92965 8.7003 2.23735 8.84842 2.56635 8.92192C2.89534 8.99542 3.23683 8.99233 3.56444 8.91289C3.89205 8.83345 4.19702 8.67979 4.45581 8.46377C4.7146 8.24775 4.92029 7.97514 5.05699 7.667C5.12588 7.47194 5.25357 7.30304 5.42245 7.18358C5.59134 7.06413 5.79313 6.99998 5.99999 7C6.20686 6.99998 6.40864 7.06413 6.57753 7.18358C6.74642 7.30304 6.87411 7.47194 6.94299 7.667C7.12801 8.05583 7.41945 8.38426 7.78352 8.61421C8.14759 8.84416 8.56938 8.96621 8.99999 8.96621C9.4306 8.96621 9.85239 8.84416 10.2165 8.61421C10.5805 8.38426 10.872 8.05583 11.057 7.667C11.1259 7.47194 11.2536 7.30304 11.4225 7.18358C11.5913 7.06413 11.7931 6.99998 12 7C12.2069 6.99998 12.4086 7.06413 12.5775 7.18358C12.7464 7.30304 12.8741 7.47194 12.943 7.667C13.128 8.05583 13.4195 8.38426 13.7835 8.61421C14.1476 8.84416 14.5694 8.96621 15 8.96621C15.4306 8.96621 15.8524 8.84416 16.2165 8.61421C16.5805 8.38426 16.872 8.05583 17.057 7.667C17.1259 7.47194 17.2536 7.30304 17.4225 7.18358C17.5913 7.06413 17.7931 6.99998 18 7C18.2069 6.99998 18.4086 7.06413 18.5775 7.18358C18.7464 7.30304 18.8741 7.47194 18.943 7.667C19.0796 7.97506 19.2852 8.24761 19.5439 8.46362C19.8026 8.67963 20.1074 8.83333 20.4349 8.91286C20.7624 8.99238 21.1037 8.99561 21.4327 8.9223C21.7616 8.84898 22.0693 8.70108 22.332 8.49C22.5306 8.32252 22.7866 8.23891 23.0457 8.25685C23.3049 8.27479 23.5469 8.39289 23.7205 8.58613C23.8942 8.77938 23.9858 9.03261 23.976 9.29221C23.9661 9.55181 23.8557 9.7974 23.668 9.977C22.9359 10.6364 21.9853 11.0009 21 11ZM21 5C19.8801 4.99071 18.8063 4.55227 18 3.775C17.1928 4.54852 16.118 4.98036 15 4.98036C13.882 4.98036 12.8072 4.54852 12 3.775C11.1928 4.54852 10.118 4.98036 8.99999 4.98036C7.88199 4.98036 6.8072 4.54852 5.99999 3.775C5.25273 4.51358 4.25504 4.94413 3.20503 4.98118C2.15501 5.01823 1.12946 4.65907 0.331992 3.975C0.226929 3.88952 0.140325 3.78359 0.0774333 3.66364C0.0145417 3.54368 -0.0233265 3.4122 -0.0338741 3.27717C-0.0444216 3.14214 -0.0274288 3.00637 0.0160737 2.87811C0.0595763 2.74984 0.128682 2.63175 0.219198 2.531C0.309714 2.43024 0.419754 2.34892 0.542644 2.29198C0.665533 2.23503 0.79871 2.20364 0.934095 2.19972C1.06948 2.19579 1.20425 2.21941 1.33024 2.26913C1.45622 2.31886 1.57079 2.39366 1.66699 2.489C1.92965 2.7003 2.23735 2.84842 2.56635 2.92192C2.89534 2.99542 3.23683 2.99233 3.56444 2.91289C3.89205 2.83345 4.19702 2.67979 4.45581 2.46377C4.7146 2.24775 4.92029 1.97514 5.05699 1.667C5.12588 1.47194 5.25357 1.30304 5.42245 1.18358C5.59134 1.06413 5.79313 0.999985 5.99999 1C6.20686 0.999985 6.40864 1.06413 6.57753 1.18358C6.74642 1.30304 6.87411 1.47194 6.94299 1.667C7.12801 2.05583 7.41945 2.38426 7.78352 2.61421C8.14759 2.84416 8.56938 2.96621 8.99999 2.96621C9.4306 2.96621 9.85239 2.84416 10.2165 2.61421C10.5805 2.38426 10.872 2.05583 11.057 1.667C11.1259 1.47194 11.2536 1.30304 11.4225 1.18358C11.5913 1.06413 11.7931 0.999985 12 1C12.2069 0.999985 12.4086 1.06413 12.5775 1.18358C12.7464 1.30304 12.8741 1.47194 12.943 1.667C13.128 2.05583 13.4195 2.38426 13.7835 2.61421C14.1476 2.84416 14.5694 2.96621 15 2.96621C15.4306 2.96621 15.8524 2.84416 16.2165 2.61421C16.5805 2.38426 16.872 2.05583 17.057 1.667C17.1259 1.47194 17.2536 1.30304 17.4225 1.18358C17.5913 1.06413 17.7931 0.999985 18 1C18.2069 0.999985 18.4086 1.06413 18.5775 1.18358C18.7464 1.30304 18.8741 1.47194 18.943 1.667C19.0796 1.97506 19.2852 2.24761 19.5439 2.46362C19.8026 2.67963 20.1074 2.83333 20.4349 2.91286C20.7624 2.99238 21.1037 2.99561 21.4327 2.9223C21.7616 2.84898 22.0693 2.70108 22.332 2.49C22.4288 2.39739 22.5432 2.32517 22.6684 2.27763C22.7937 2.23009 22.9272 2.20819 23.0611 2.21325C23.1949 2.21831 23.3264 2.25021 23.4477 2.30706C23.569 2.36391 23.6777 2.44456 23.7672 2.54421C23.8567 2.64386 23.9253 2.76048 23.9689 2.88715C24.0125 3.01383 24.0302 3.14796 24.0209 3.28161C24.0117 3.41525 23.9757 3.54567 23.915 3.66513C23.8544 3.78458 23.7704 3.89064 23.668 3.977C22.9359 4.63641 21.9853 5.00091 21 5Z" fill="#BBDCE5"/>
</g>
<defs>
<clipPath id="clip0_1_233">
<rect width="24" height="24" fill="white"/>
</clipPath>
</defs>
</svg>
