<svg width="16" height="16" viewBox="0 0 16 16" fill="none" xmlns="http://www.w3.org/2000/svg">
<g clip-path="url(#clip0_1_85)">
<path d="M14.0001 15.3333C13.2534 15.3271 12.5376 15.0348 12.0001 14.5166C11.4619 15.0323 10.7454 15.3202 10.0001 15.3202C9.25473 15.3202 8.53821 15.0323 8.00007 14.5166C7.46193 15.0323 6.7454 15.3202 6.00007 15.3202C5.25473 15.3202 4.53821 15.0323 4.00007 14.5166C3.50189 15.009 2.83676 15.296 2.13675 15.3207C1.43675 15.3454 0.753044 15.106 0.221399 14.65C0.154932 14.5919 0.10066 14.5212 0.0617306 14.442C0.0228013 14.3628 -9.93349e-06 14.2766 -0.00537951 14.1885C-0.0107491 14.1004 0.00142985 14.0121 0.0304507 13.9287C0.0594716 13.8454 0.104757 13.7686 0.163678 13.7029C0.2226 13.6372 0.293986 13.5838 0.373694 13.5459C0.453402 13.508 0.539845 13.4863 0.628008 13.482C0.716171 13.4778 0.804299 13.4911 0.887279 13.5212C0.970259 13.5513 1.04644 13.5975 1.1114 13.6573C1.2865 13.7982 1.49164 13.8969 1.71097 13.9459C1.9303 13.9949 2.15795 13.9928 2.37636 13.9399C2.59477 13.8869 2.79808 13.7845 2.97061 13.6405C3.14314 13.4965 3.28026 13.3147 3.3714 13.1093C3.41766 12.9796 3.50292 12.8675 3.61549 12.7882C3.72805 12.7089 3.8624 12.6665 4.00007 12.6666C4.13798 12.6666 4.2725 12.7094 4.38509 12.789C4.49768 12.8687 4.58281 12.9813 4.62873 13.1113C4.75208 13.3705 4.94637 13.5895 5.18909 13.7428C5.4318 13.8961 5.71299 13.9774 6.00007 13.9774C6.28714 13.9774 6.56833 13.8961 6.81105 13.7428C7.05376 13.5895 7.24805 13.3705 7.3714 13.1113C7.41733 12.9813 7.50245 12.8687 7.61504 12.789C7.72764 12.7094 7.86216 12.6666 8.00007 12.6666C8.13798 12.6666 8.2725 12.7094 8.38509 12.789C8.49769 12.8687 8.58281 12.9813 8.62873 13.1113C8.75208 13.3705 8.94637 13.5895 9.18909 13.7428C9.4318 13.8961 9.71299 13.9774 10.0001 13.9774C10.2871 13.9774 10.5683 13.8961 10.811 13.7428C11.0538 13.5895 11.2481 13.3705 11.3714 13.1113C11.4173 12.9813 11.5024 12.8687 11.615 12.789C11.7276 12.7094 11.8622 12.6666 12.0001 12.6666C12.138 12.6666 12.2725 12.7094 12.3851 12.789C12.4977 12.8687 12.5828 12.9813 12.6287 13.1113C12.7198 13.3167 12.8569 13.4984 13.0293 13.6424C13.2018 13.7864 13.405 13.8888 13.6233 13.9419C13.8416 13.9949 14.0692 13.997 14.2885 13.9482C14.5078 13.8993 14.7129 13.8007 14.8881 13.66C15.0205 13.5483 15.1911 13.4926 15.3639 13.5045C15.5367 13.5165 15.698 13.5952 15.8138 13.724C15.9295 13.8529 15.9906 14.0217 15.984 14.1948C15.9775 14.3678 15.9039 14.5316 15.7787 14.6513C15.2907 15.0909 14.6569 15.3339 14.0001 15.3333ZM14.0001 11.3333C13.2534 11.3271 12.5376 11.0348 12.0001 10.5166C11.4619 11.0323 10.7454 11.3202 10.0001 11.3202C9.25473 11.3202 8.53821 11.0323 8.00007 10.5166C7.46193 11.0323 6.7454 11.3202 6.00007 11.3202C5.25473 11.3202 4.53821 11.0323 4.00007 10.5166C3.50189 11.009 2.83676 11.296 2.13675 11.3207C1.43675 11.3454 0.753044 11.106 0.221399 10.65C0.154932 10.5919 0.10066 10.5212 0.0617306 10.442C0.0228013 10.3628 -9.93349e-06 10.2766 -0.00537951 10.1885C-0.0107491 10.1004 0.00142985 10.0121 0.0304507 9.92874C0.0594716 9.84538 0.104757 9.76862 0.163678 9.7029C0.2226 9.63718 0.293986 9.58382 0.373694 9.5459C0.453402 9.50799 0.539845 9.48628 0.628008 9.48204C0.716171 9.4778 0.804299 9.4911 0.887279 9.52119C0.970259 9.55127 1.04644 9.59754 1.1114 9.65729C1.2865 9.79816 1.49164 9.89691 1.71097 9.94591C1.9303 9.99491 2.15795 9.99285 2.37636 9.93989C2.59477 9.88693 2.79808 9.78449 2.97061 9.64047C3.14314 9.49646 3.28026 9.31472 3.3714 9.10929C3.41766 8.97963 3.50292 8.86746 3.61549 8.7882C3.72805 8.70894 3.8624 8.66647 4.00007 8.66663C4.13798 8.66662 4.2725 8.70938 4.38509 8.78902C4.49768 8.86866 4.58281 8.98125 4.62873 9.11129C4.75208 9.37051 4.94637 9.58947 5.18909 9.74277C5.4318 9.89606 5.71299 9.97743 6.00007 9.97743C6.28714 9.97743 6.56833 9.89606 6.81105 9.74277C7.05376 9.58947 7.24805 9.37051 7.3714 9.11129C7.41733 8.98125 7.50245 8.86866 7.61504 8.78902C7.72764 8.70938 7.86216 8.66662 8.00007 8.66663C8.13798 8.66662 8.2725 8.70938 8.38509 8.78902C8.49769 8.86866 8.58281 8.98125 8.62873 9.11129C8.75208 9.37051 8.94637 9.58947 9.18909 9.74277C9.4318 9.89606 9.71299 9.97743 10.0001 9.97743C10.2871 9.97743 10.5683 9.89606 10.811 9.74277C11.0538 9.58947 11.2481 9.37051 11.3714 9.11129C11.4173 8.98125 11.5024 8.86866 11.615 8.78902C11.7276 8.70938 11.8622 8.66662 12.0001 8.66663C12.138 8.66662 12.2725 8.70938 12.3851 8.78902C12.4977 8.86866 12.5828 8.98125 12.6287 9.11129C12.7198 9.31666 12.8569 9.49836 13.0293 9.64237C13.2018 9.78638 13.405 9.88885 13.6233 9.94186C13.8416 9.99488 14.0692 9.99704 14.2885 9.94816C14.5078 9.89928 14.7129 9.80068 14.8881 9.65996C15.0205 9.54831 15.1911 9.49256 15.3639 9.50453C15.5367 9.51649 15.698 9.59522 15.8138 9.72405C15.9295 9.85288 15.9906 10.0217 15.984 10.1948C15.9775 10.3678 15.9039 10.5316 15.7787 10.6513C15.2907 11.0909 14.6569 11.3339 14.0001 11.3333ZM14.0001 7.33329C13.2534 7.3271 12.5376 7.03481 12.0001 6.51663C11.4619 7.03231 10.7454 7.3202 10.0001 7.3202C9.25473 7.3202 8.53821 7.03231 8.00007 6.51663C7.46193 7.03231 6.7454 7.3202 6.00007 7.3202C5.25473 7.3202 4.53821 7.03231 4.00007 6.51663C3.50189 7.00901 2.83676 7.29605 2.13675 7.32075C1.43675 7.34545 0.753044 7.10601 0.221399 6.64996C0.151357 6.59298 0.0936212 6.52236 0.0516934 6.44238C0.00976566 6.36241 -0.0154798 6.27476 -0.0225115 6.18474C-0.0295432 6.09472 -0.0182146 6.00421 0.010787 5.9187C0.0397887 5.83319 0.085859 5.75446 0.146203 5.68729C0.206547 5.62012 0.279907 5.56591 0.361834 5.52794C0.44376 5.48998 0.532544 5.46906 0.622801 5.46644C0.713058 5.46382 0.802906 5.47956 0.886895 5.51271C0.970884 5.54587 1.04726 5.59573 1.1114 5.65929C1.2865 5.80016 1.49164 5.89891 1.71097 5.94791C1.9303 5.99691 2.15795 5.99485 2.37636 5.94189C2.59477 5.88893 2.79808 5.78649 2.97061 5.64247C3.14314 5.49846 3.28026 5.31672 3.3714 5.11129C3.41732 4.98125 3.50245 4.86865 3.61504 4.78902C3.72763 4.70938 3.86215 4.66662 4.00007 4.66663C4.13798 4.66662 4.2725 4.70938 4.38509 4.78902C4.49768 4.86865 4.58281 4.98125 4.62873 5.11129C4.75208 5.37051 4.94637 5.58947 5.18909 5.74277C5.4318 5.89607 5.71299 5.97743 6.00007 5.97743C6.28714 5.97743 6.56833 5.89607 6.81105 5.74277C7.05376 5.58947 7.24805 5.37051 7.3714 5.11129C7.41733 4.98125 7.50245 4.86865 7.61504 4.78902C7.72764 4.70938 7.86216 4.66662 8.00007 4.66663C8.13798 4.66662 8.2725 4.70938 8.38509 4.78902C8.49769 4.86865 8.58281 4.98125 8.62873 5.11129C8.75208 5.37051 8.94637 5.58947 9.18909 5.74277C9.4318 5.89607 9.71299 5.97743 10.0001 5.97743C10.2871 5.97743 10.5683 5.89607 10.811 5.74277C11.0538 5.58947 11.2481 5.37051 11.3714 5.11129C11.4173 4.98125 11.5024 4.86865 11.615 4.78902C11.7276 4.70938 11.8622 4.66662 12.0001 4.66663C12.138 4.66662 12.2725 4.70938 12.3851 4.78902C12.4977 4.86865 12.5828 4.98125 12.6287 5.11129C12.7198 5.31666 12.8569 5.49836 13.0293 5.64237C13.2018 5.78638 13.405 5.88884 13.6233 5.94186C13.8416 5.99488 14.0692 5.99704 14.2885 5.94816C14.5078 5.89928 14.7129 5.80068 14.8881 5.65996C15.0205 5.54831 15.1911 5.49256 15.3639 5.50453C15.5367 5.51649 15.698 5.59522 15.8138 5.72405C15.9295 5.85288 15.9906 6.0217 15.984 6.19476C15.9775 6.36783 15.9039 6.53156 15.7787 6.65129C15.2907 7.0909 14.6569 7.3339 14.0001 7.33329ZM14.0001 3.33329C13.2534 3.3271 12.5376 3.03481 12.0001 2.51663C11.4619 3.03231 10.7454 3.3202 10.0001 3.3202C9.25473 3.3202 8.53821 3.03231 8.00007 2.51663C7.46193 3.03231 6.7454 3.3202 6.00007 3.3202C5.25473 3.3202 4.53821 3.03231 4.00007 2.51663C3.50189 3.00901 2.83676 3.29605 2.13675 3.32075C1.43675 3.34545 0.753044 3.106 0.221399 2.64996C0.151357 2.59297 0.0936212 2.52236 0.0516934 2.44238C0.00976566 2.36241 -0.0154798 2.27476 -0.0225115 2.18474C-0.0295432 2.09472 -0.0182146 2.00421 0.010787 1.9187C0.0397887 1.83319 0.085859 1.75446 0.146203 1.68729C0.206547 1.62012 0.279907 1.56591 0.361834 1.52794C0.44376 1.48998 0.532544 1.46905 0.622801 1.46644C0.713058 1.46382 0.802906 1.47956 0.886895 1.51271C0.970884 1.54587 1.04726 1.59573 1.1114 1.65929C1.2865 1.80016 1.49164 1.89891 1.71097 1.94791C1.9303 1.99691 2.15795 1.99485 2.37636 1.94189C2.59477 1.88893 2.79808 1.78649 2.97061 1.64247C3.14314 1.49846 3.28026 1.31672 3.3714 1.11129C3.41732 0.981252 3.50245 0.868655 3.61504 0.789016C3.72763 0.709376 3.86215 0.666616 4.00007 0.666626C4.13798 0.666616 4.2725 0.709376 4.38509 0.789016C4.49768 0.868655 4.58281 0.981252 4.62873 1.11129C4.75208 1.37051 4.94637 1.58947 5.18909 1.74277C5.4318 1.89606 5.71299 1.97743 6.00007 1.97743C6.28714 1.97743 6.56833 1.89606 6.81105 1.74277C7.05376 1.58947 7.24805 1.37051 7.3714 1.11129C7.41733 0.981252 7.50245 0.868655 7.61504 0.789016C7.72764 0.709376 7.86216 0.666616 8.00007 0.666626C8.13798 0.666616 8.2725 0.709376 8.38509 0.789016C8.49769 0.868655 8.58281 0.981252 8.62873 1.11129C8.75208 1.37051 8.94637 1.58947 9.18909 1.74277C9.4318 1.89606 9.71299 1.97743 10.0001 1.97743C10.2871 1.97743 10.5683 1.89606 10.811 1.74277C11.0538 1.58947 11.2481 1.37051 11.3714 1.11129C11.4173 0.981252 11.5024 0.868655 11.615 0.789016C11.7276 0.709376 11.8622 0.666616 12.0001 0.666626C12.138 0.666616 12.2725 0.709376 12.3851 0.789016C12.4977 0.868655 12.5828 0.981252 12.6287 1.11129C12.7198 1.31666 12.8569 1.49836 13.0293 1.64237C13.2018 1.78638 13.405 1.88885 13.6233 1.94186C13.8416 1.99488 14.0692 1.99704 14.2885 1.94816C14.5078 1.89928 14.7129 1.80068 14.8881 1.65996C14.9526 1.59822 15.0289 1.55007 15.1124 1.51838C15.1959 1.48668 15.2849 1.47209 15.3741 1.47546C15.4634 1.47883 15.551 1.5001 15.6319 1.538C15.7128 1.5759 15.7852 1.62967 15.8449 1.6961C15.9046 1.76253 15.9503 1.84028 15.9793 1.92473C16.0084 2.00918 16.0202 2.0986 16.014 2.1877C16.0079 2.27679 15.9839 2.36374 15.9434 2.44338C15.903 2.52301 15.847 2.59372 15.7787 2.65129C15.2907 3.0909 14.6569 3.3339 14.0001 3.33329Z" fill="#06272D"/>
</g>
<defs>
<clipPath id="clip0_1_85">
<rect width="16" height="16" fill="white"/>
</clipPath>
</defs>
</svg>
