<svg width="62" height="62" viewBox="0 0 62 62" fill="none" xmlns="http://www.w3.org/2000/svg">
<g clip-path="url(#clip0_1_397)">
<path d="M54.0314 59.1774C51.1499 59.1535 48.3873 58.0254 46.3126 56.0256C44.2357 58.0158 41.4704 59.1269 38.5939 59.1269C35.7173 59.1269 32.952 58.0158 30.8751 56.0256C28.7982 58.0158 26.0329 59.1269 23.1564 59.1269C20.2798 59.1269 17.5145 58.0158 15.4376 56.0256C13.5149 57.9259 10.948 59.0337 8.24638 59.129C5.54478 59.2243 2.90612 58.3002 0.854309 56.5402C0.597788 56.316 0.38833 56.0432 0.238087 55.7375C0.0878441 55.4317 -0.000192828 55.0992 -0.0209161 54.7592C-0.0416393 54.4192 0.00536383 54.0784 0.117366 53.7567C0.229369 53.435 0.404141 53.1387 0.631542 52.8851C0.858944 52.6315 1.13445 52.4255 1.44207 52.2792C1.74969 52.1329 2.08331 52.0491 2.42356 52.0327C2.76382 52.0164 3.10394 52.0677 3.42419 52.1838C3.74444 52.2999 4.03845 52.4785 4.28915 52.7091C4.96495 53.2528 5.75665 53.6339 6.60312 53.823C7.44959 54.0121 8.3282 54.0041 9.17112 53.7997C10.014 53.5953 10.7987 53.2 11.4646 52.6442C12.1304 52.0884 12.6596 51.387 13.0113 50.5942C13.1899 50.0937 13.5189 49.6608 13.9534 49.3549C14.3878 49.049 14.9063 48.8851 15.4376 48.8857C15.9699 48.8857 16.489 49.0507 16.9236 49.3581C17.3581 49.6654 17.6866 50.1 17.8639 50.6019C18.3399 51.6023 19.0898 52.4473 20.0265 53.039C20.9632 53.6306 22.0484 53.9446 23.1564 53.9446C24.2643 53.9446 25.3495 53.6306 26.2862 53.039C27.2229 52.4473 27.9728 51.6023 28.4488 50.6019C28.6261 50.1 28.9546 49.6654 29.3891 49.3581C29.8237 49.0507 30.3429 48.8857 30.8751 48.8857C31.4074 48.8857 31.9265 49.0507 32.3611 49.3581C32.7956 49.6654 33.1241 50.1 33.3014 50.6019C33.7774 51.6023 34.5273 52.4473 35.464 53.039C36.4007 53.6306 37.4859 53.9446 38.5939 53.9446C39.7018 53.9446 40.787 53.6306 41.7237 53.039C42.6605 52.4473 43.4103 51.6023 43.8863 50.6019C44.0636 50.1 44.3921 49.6654 44.8266 49.3581C45.2612 49.0507 45.7804 48.8857 46.3126 48.8857C46.8449 48.8857 47.364 49.0507 47.7986 49.3581C48.2331 49.6654 48.5616 50.1 48.7389 50.6019C49.0904 51.3945 49.6194 52.0957 50.2849 52.6515C50.9504 53.2073 51.7348 53.6027 52.5774 53.8074C53.4199 54.012 54.2983 54.0203 55.1446 53.8317C55.9909 53.643 56.7826 53.2625 57.4585 52.7194C57.9695 52.2885 58.6281 52.0733 59.2949 52.1195C59.9617 52.1657 60.5844 52.4695 61.0311 52.9667C61.4778 53.4639 61.7135 54.1155 61.6882 54.7834C61.663 55.4513 61.3788 56.0832 60.8959 56.5453C59.0123 58.2419 56.5664 59.1798 54.0314 59.1774ZM54.0314 43.7399C51.1499 43.716 48.3873 42.5879 46.3126 40.5881C44.2357 42.5783 41.4704 43.6894 38.5939 43.6894C35.7173 43.6894 32.952 42.5783 30.8751 40.5881C28.7982 42.5783 26.0329 43.6894 23.1564 43.6894C20.2798 43.6894 17.5145 42.5783 15.4376 40.5881C13.5149 42.4884 10.948 43.5962 8.24638 43.6915C5.54478 43.7868 2.90612 42.8627 0.854309 41.1027C0.597788 40.8785 0.38833 40.6057 0.238087 40.3C0.0878441 39.9942 -0.000192828 39.6617 -0.0209161 39.3217C-0.0416393 38.9817 0.00536383 38.6409 0.117366 38.3192C0.229369 37.9975 0.404141 37.7012 0.631542 37.4476C0.858944 37.194 1.13445 36.988 1.44207 36.8417C1.74969 36.6954 2.08331 36.6116 2.42356 36.5952C2.76382 36.5789 3.10394 36.6302 3.42419 36.7463C3.74444 36.8624 4.03845 37.041 4.28915 37.2716C4.96495 37.8153 5.75665 38.1964 6.60312 38.3855C7.44959 38.5746 8.3282 38.5666 9.17112 38.3622C10.014 38.1578 10.7987 37.7625 11.4646 37.2067C12.1304 36.6509 12.6596 35.9495 13.0113 35.1567C13.1899 34.6562 13.5189 34.2233 13.9534 33.9174C14.3878 33.6115 14.9063 33.4476 15.4376 33.4482C15.9699 33.4482 16.489 33.6132 16.9236 33.9206C17.3581 34.2279 17.6866 34.6625 17.8639 35.1644C18.3399 36.1648 19.0898 37.0098 20.0265 37.6015C20.9632 38.1931 22.0484 38.5071 23.1564 38.5071C24.2643 38.5071 25.3495 38.1931 26.2862 37.6015C27.2229 37.0098 27.9728 36.1648 28.4488 35.1644C28.6261 34.6625 28.9546 34.2279 29.3891 33.9206C29.8237 33.6132 30.3429 33.4482 30.8751 33.4482C31.4074 33.4482 31.9265 33.6132 32.3611 33.9206C32.7956 34.2279 33.1241 34.6625 33.3014 35.1644C33.7774 36.1648 34.5273 37.0098 35.464 37.6015C36.4007 38.1931 37.4859 38.5071 38.5939 38.5071C39.7018 38.5071 40.787 38.1931 41.7237 37.6015C42.6605 37.0098 43.4103 36.1648 43.8863 35.1644C44.0636 34.6625 44.3921 34.2279 44.8266 33.9206C45.2612 33.6132 45.7804 33.4482 46.3126 33.4482C46.8449 33.4482 47.364 33.6132 47.7986 33.9206C48.2331 34.2279 48.5616 34.6625 48.7389 35.1644C49.0904 35.957 49.6194 36.6582 50.2849 37.214C50.9504 37.7698 51.7348 38.1652 52.5774 38.3699C53.4199 38.5745 54.2983 38.5828 55.1446 38.3942C55.9909 38.2055 56.7826 37.825 57.4585 37.2819C57.9695 36.851 58.6281 36.6358 59.2949 36.682C59.9617 36.7282 60.5844 37.032 61.0311 37.5292C61.4778 38.0264 61.7135 38.678 61.6882 39.3459C61.663 40.0138 61.3788 40.6457 60.8959 41.1078C59.0123 42.8044 56.5664 43.7423 54.0314 43.7399ZM54.0314 28.3024C51.1499 28.2785 48.3873 27.1504 46.3126 25.1506C44.2357 27.1408 41.4704 28.2519 38.5939 28.2519C35.7173 28.2519 32.952 27.1408 30.8751 25.1506C28.7982 27.1408 26.0329 28.2519 23.1564 28.2519C20.2798 28.2519 17.5145 27.1408 15.4376 25.1506C13.5149 27.0509 10.948 28.1587 8.24638 28.254C5.54478 28.3493 2.90612 27.4252 0.854309 25.6652C0.58399 25.4452 0.361165 25.1727 0.19935 24.8641C0.0375349 24.5554 -0.0598968 24.2171 -0.0870348 23.8697C-0.114173 23.5223 -0.0704516 23.173 0.0414767 22.843C0.153405 22.5129 0.331207 22.2091 0.564098 21.9499C0.796989 21.6906 1.08011 21.4814 1.3963 21.3349C1.71248 21.1884 2.05513 21.1076 2.40347 21.0975C2.7518 21.0874 3.09856 21.1482 3.42271 21.2761C3.74685 21.4041 4.04163 21.5965 4.28915 21.8418C4.96495 22.3855 5.75665 22.7666 6.60312 22.9557C7.44959 23.1448 8.3282 23.1368 9.17112 22.9325C10.014 22.7281 10.7987 22.3327 11.4646 21.7769C12.1304 21.2211 12.6596 20.5197 13.0113 19.7269C13.1886 19.225 13.5171 18.7904 13.9516 18.4831C14.3862 18.1757 14.9053 18.0107 15.4376 18.0107C15.9699 18.0107 16.489 18.1757 16.9236 18.4831C17.3581 18.7904 17.6866 19.225 17.8639 19.7269C18.3399 20.7273 19.0898 21.5723 20.0265 22.164C20.9632 22.7556 22.0484 23.0696 23.1564 23.0696C24.2643 23.0696 25.3495 22.7556 26.2862 22.164C27.2229 21.5723 27.9728 20.7273 28.4488 19.7269C28.6261 19.225 28.9546 18.7904 29.3891 18.4831C29.8237 18.1757 30.3429 18.0107 30.8751 18.0107C31.4074 18.0107 31.9265 18.1757 32.3611 18.4831C32.7956 18.7904 33.1241 19.225 33.3014 19.7269C33.7774 20.7273 34.5273 21.5723 35.464 22.164C36.4007 22.7556 37.4859 23.0696 38.5939 23.0696C39.7018 23.0696 40.787 22.7556 41.7237 22.164C42.6605 21.5723 43.4103 20.7273 43.8863 19.7269C44.0636 19.225 44.3921 18.7904 44.8266 18.4831C45.2612 18.1757 45.7804 18.0107 46.3126 18.0107C46.8449 18.0107 47.364 18.1757 47.7986 18.4831C48.2331 18.7904 48.5616 19.225 48.7389 19.7269C49.0904 20.5195 49.6194 21.2207 50.2849 21.7765C50.9504 22.3323 51.7348 22.7277 52.5774 22.9324C53.4199 23.137 54.2983 23.1453 55.1446 22.9567C55.9909 22.768 56.7826 22.3875 57.4585 21.8444C57.9695 21.4135 58.6281 21.1983 59.2949 21.2445C59.9617 21.2907 60.5844 21.5945 61.0311 22.0917C61.4778 22.5889 61.7135 23.2405 61.6882 23.9084C61.663 24.5763 61.3788 25.2082 60.8959 25.6703C59.0123 27.3669 56.5664 28.3048 54.0314 28.3024ZM54.0314 12.8649C51.1499 12.841 48.3873 11.7129 46.3126 9.71309C44.2357 11.7033 41.4704 12.8144 38.5939 12.8144C35.7173 12.8144 32.952 11.7033 30.8751 9.71309C28.7982 11.7033 26.0329 12.8144 23.1564 12.8144C20.2798 12.8144 17.5145 11.7033 15.4376 9.71309C13.5149 11.6134 10.948 12.7212 8.24638 12.8165C5.54478 12.9118 2.90612 11.9877 0.854309 10.2277C0.58399 10.0077 0.361165 9.7352 0.19935 9.42656C0.0375349 9.11793 -0.0598968 8.77964 -0.0870348 8.43221C-0.114173 8.08479 -0.0704516 7.73547 0.0414767 7.40546C0.153405 7.07544 0.331207 6.7716 0.564098 6.51237C0.796989 6.25313 1.08011 6.04391 1.3963 5.89739C1.71248 5.75088 2.05513 5.67012 2.40347 5.66001C2.7518 5.64991 3.09856 5.71067 3.42271 5.83862C3.74685 5.96656 4.04163 6.15902 4.28915 6.40432C4.96495 6.94799 5.75665 7.32908 6.60312 7.51819C7.44959 7.70729 8.3282 7.69934 9.17112 7.49495C10.014 7.29056 10.7987 6.8952 11.4646 6.3394C12.1304 5.78359 12.6596 5.0822 13.0113 4.28938C13.1886 3.7875 13.5171 3.35295 13.9516 3.04559C14.3862 2.73823 14.9053 2.5732 15.4376 2.57324C15.9699 2.5732 16.489 2.73823 16.9236 3.04559C17.3581 3.35295 17.6866 3.7875 17.8639 4.28938C18.3399 5.28981 19.0898 6.13483 20.0265 6.72647C20.9632 7.31811 22.0484 7.63213 23.1564 7.63213C24.2643 7.63213 25.3495 7.31811 26.2862 6.72647C27.2229 6.13483 27.9728 5.28981 28.4488 4.28938C28.6261 3.7875 28.9546 3.35295 29.3891 3.04559C29.8237 2.73823 30.3429 2.5732 30.8751 2.57324C31.4074 2.5732 31.9265 2.73823 32.3611 3.04559C32.7956 3.35295 33.1241 3.7875 33.3014 4.28938C33.7774 5.28981 34.5273 6.13483 35.464 6.72647C36.4007 7.31811 37.4859 7.63213 38.5939 7.63213C39.7018 7.63213 40.787 7.31811 41.7237 6.72647C42.6605 6.13483 43.4103 5.28981 43.8863 4.28938C44.0636 3.7875 44.3921 3.35295 44.8266 3.04559C45.2612 2.73823 45.7804 2.5732 46.3126 2.57324C46.8449 2.5732 47.364 2.73823 47.7986 3.04559C48.2331 3.35295 48.5616 3.7875 48.7389 4.28938C49.0904 5.08198 49.6194 5.78323 50.2849 6.33901C50.9504 6.89479 51.7348 7.29024 52.5774 7.49486C53.4199 7.69948 54.2983 7.70779 55.1446 7.51915C55.9909 7.33052 56.7826 6.94997 57.4585 6.40689C57.7075 6.16861 58.0019 5.98279 58.3241 5.86047C58.6464 5.73815 58.9899 5.68183 59.3343 5.69484C59.6788 5.70784 60.0171 5.78992 60.3292 5.9362C60.6413 6.08248 60.9208 6.28997 61.1511 6.54636C61.3815 6.80275 61.558 7.10282 61.6701 7.42873C61.7823 7.75465 61.8278 8.09978 61.804 8.44362C61.7802 8.78747 61.6875 9.12304 61.5315 9.43039C61.3755 9.73774 61.1594 10.0106 60.8959 10.2328C59.0123 11.9294 56.5664 12.8673 54.0314 12.8649Z" fill="url(#paint0_linear_1_397)"/>
</g>
<defs>
<linearGradient id="paint0_linear_1_397" x1="-0.0948486" y1="30.8753" x2="61.8101" y2="30.8753" gradientUnits="userSpaceOnUse">
<stop stop-color="#CB8E38"/>
<stop offset="1" stop-color="#D1B04B"/>
</linearGradient>
<clipPath id="clip0_1_397">
<rect width="61.75" height="61.75" fill="white"/>
</clipPath>
</defs>
</svg>
